<svg width="16" height="16" viewBox="0 0 16 16" fill="none" xmlns="http://www.w3.org/2000/svg">
<g id="Check Circle 1" clip-path="url(#clip0_1778_1273)">
<path id="Vector" d="M4 8.81607L5.63333 11.1341C5.69529 11.2266 5.77845 11.303 5.8759 11.3569C5.97335 11.4109 6.08226 11.4407 6.19358 11.444C6.3049 11.4474 6.4154 11.4241 6.5159 11.3761C6.61639 11.3281 6.70396 11.2567 6.77133 11.1681L12 4.55273" stroke="#00E917" stroke-linecap="round" stroke-linejoin="round"/>
<path id="Vector_2" d="M0.5 8C0.5 9.98912 1.29018 11.8968 2.6967 13.3033C4.10322 14.7098 6.01088 15.5 8 15.5C9.98912 15.5 11.8968 14.7098 13.3033 13.3033C14.7098 11.8968 15.5 9.98912 15.5 8C15.5 6.01088 14.7098 4.10322 13.3033 2.6967C11.8968 1.29018 9.98912 0.5 8 0.5C6.01088 0.5 4.10322 1.29018 2.6967 2.6967C1.29018 4.10322 0.5 6.01088 0.5 8Z" stroke="#00E917" stroke-linecap="round" stroke-linejoin="round"/>
</g>
<defs>
<clipPath id="clip0_1778_1273">
<rect width="16" height="16" fill="white"/>
</clipPath>
</defs>
</svg>
